<?xml version="1.0" encoding="UTF-8"?>
<svg width="1024px" height="1024px" viewBox="0 0 1024 1024" version="1.1" xmlns="http://www.w3.org/2000/svg" xmlns:xlink="http://www.w3.org/1999/xlink">
    <!-- Generator: Sketch 63.1 (92452) - https://sketch.com -->
    <title>piao</title>
    <desc>Created with Sketch.</desc>
    <g id="Billings" stroke="none" stroke-width="1" fill="none" fill-rule="evenodd">
        <g id="画板备份-7" fill="#9F9FAF">
            <g id="编组">
                <path d="M808.804768,735.462882 C860.441318,736.421179 902,777.819956 902,828.749267 C902,880.279292 859.455161,922.052632 806.973443,922.052632 L312.428237,922.052632 C343.490887,892.257322 360.019157,861.599349 359.957509,829.413174 C359.895841,797.216768 343.240519,766.105118 312.053114,735.462882 L808.804768,735.462882 Z M768.180588,119.677653 L768.180588,698.158516 L264.14872,698.158516 L300.004149,766.494333 C308.224444,782.161155 312.053114,796.7732 312.053114,810.898867 C312.053114,824.723315 308.388851,838.786653 300.541717,853.682399 L284.16716,884.765246 L255.03718,884.765246 C181.562774,884.765246 122,826.282571 122,754.140535 L122,119.677653 C122,106.67986 135.195182,97.6635905 147.608376,102.179447 L295.70345,156.055682 L438.272558,102.258994 C442.594756,100.628066 447.374681,100.602544 451.714689,102.187222 L598.046879,155.617837 L742.477407,102.214219 C754.906148,97.6186553 768.180588,106.637668 768.180588,119.677653 Z M597.132785,474.21346 L293.047803,474.21346 C282.551459,474.21346 274.042491,482.568128 274.042491,492.874133 C274.042491,503.180138 282.551459,511.534806 293.047803,511.534806 L597.132785,511.534806 C607.629129,511.534806 616.138097,503.180138 616.138097,492.874133 C616.138097,482.568128 607.629129,474.21346 597.132785,474.21346 Z M445.090294,324.928076 L293.047803,324.928076 C282.551459,324.928076 274.042491,333.282744 274.042491,343.588749 C274.042491,353.894754 282.551459,362.249422 293.047803,362.249422 L445.090294,362.249422 C455.586638,362.249422 464.095605,353.894754 464.095605,343.588749 C464.095605,333.282744 455.586638,324.928076 445.090294,324.928076 Z" id="path"></path>
            </g>
        </g>
    </g>
</svg>