<?xml version="1.0" encoding="UTF-8"?>
<svg width="1024px" height="1024px" viewBox="0 0 1024 1024" version="1.1" xmlns="http://www.w3.org/2000/svg" xmlns:xlink="http://www.w3.org/1999/xlink">
    <!-- Generator: Sketch 63.1 (92452) - https://sketch.com -->
    <title>Billing</title>
    <desc>Created with Sketch.</desc>
    <g id="工作台" stroke="none" stroke-width="1" fill="none" fill-rule="evenodd">
        <g id="画板备份-2" fill="#FFFFFF" fill-rule="nonzero">
            <g id="编组">
                <g id="Path" transform="translate(129.000000, 107.333333)">
                    <path d="M688.472242,-1.08002496e-12 C735.432698,-1.08002496e-12 765.659608,45.9839621 765.659608,92.9444187 L765.659608,92.9444187 L765.659608,731.304793 C765.8816,734.748537 765.8816,738.203003 765.659608,741.646746 C762.704247,781.333681 728.16313,811.127629 688.472242,808.225843 L688.472242,808.225843 L135.732584,808.225843 C88.6833568,808.225843 42.52185,778.265249 42.52185,731.216021 L42.52185,731.216021 L42.52185,685.320831 C17.9338723,675.225875 1.37372618,651.85498 -1.47792889e-12,625.310872 C1.37976596,598.77943 17.9407808,575.424596 42.52185,565.345299 L42.52185,565.345299 L42.52185,472.445267 C17.9409187,462.341455 1.38441781,438.975704 -1.47792889e-12,412.435308 C1.36905177,385.900145 17.9337246,362.540152 42.52185,352.469736 L42.52185,352.469736 L42.52185,259.259001 C17.9337246,249.188584 1.36905177,225.828591 -1.47792889e-12,199.293428 C1.37976596,172.761986 17.9407808,149.407152 42.52185,139.327855 L42.52185,139.327855 L42.52185,92.9444187 C45.6871174,42.9900408 85.5103838,3.18579173 135.466268,0.0443857895 L135.466268,0.0443857895 Z M588.869914,179.719174 C578.858185,169.742028 562.662614,169.742028 552.650886,179.719174 L552.650886,179.719174 L416.47444,316.650182 L280.608698,181.00637 C270.586941,171.053521 254.411426,171.053521 244.389669,181.00637 C243.270761,181.940615 242.245081,182.981159 241.327031,184.113394 C234.314596,192.831186 235.684869,205.580691 244.389669,212.609248 L244.389669,212.609248 L379.545235,343.903225 L270.089201,343.903225 C260.660918,343.51115 251.776083,348.317664 246.945109,356.423707 C242.114134,364.52975 242.114134,374.631377 246.945109,382.73742 C251.776083,390.843463 260.660918,395.649977 270.089201,395.257902 L270.089201,395.257902 L388.999467,395.257902 L388.999467,472.312109 L270.089201,472.312109 C256.32299,472.884582 245.457472,484.211338 245.457472,497.989447 C245.457472,511.767556 256.32299,523.094312 270.089201,523.666785 L270.089201,523.666785 L388.999467,523.666785 L388.999467,610.263996 C388.999467,624.457455 400.505539,635.963527 414.698998,635.963527 C428.892457,635.963527 440.398529,624.457455 440.398529,610.263996 L440.398529,610.263996 L440.398529,523.666785 L578.306031,523.666785 C592.072241,523.094312 602.937759,511.767556 602.937759,497.989447 C602.937759,484.211338 592.072241,472.884582 578.306031,472.312109 L578.306031,472.312109 L440.398529,472.312109 L440.398529,395.257902 L578.306031,395.257902 C587.734314,395.649977 596.619148,390.843463 601.450123,382.73742 C606.281098,374.631377 606.281098,364.52975 601.450123,356.423707 C596.619148,348.317664 587.734314,343.51115 578.306031,343.903225 L578.306031,343.903225 L578.306031,345.057263 L453.004172,345.057263 L588.869914,213.630127 C589.402547,213.14188 589.935179,212.609248 590.423426,212.076615 C594.509112,207.580134 596.640839,201.644552 596.349486,195.576086 C596.058133,189.507619 593.367576,183.80356 588.869914,179.719174 Z" id="形状结合"></path>
                </g>
            </g>
        </g>
    </g>
</svg>