<?xml version="1.0" encoding="UTF-8"?>
<svg width="1024px" height="1024px" viewBox="0 0 1024 1024" version="1.1" xmlns="http://www.w3.org/2000/svg" xmlns:xlink="http://www.w3.org/1999/xlink">
    <!-- Generator: Sketch 63.1 (92452) - https://sketch.com -->
    <title>Booking</title>
    <desc>Created with Sketch.</desc>
    <g id="工作台" stroke="none" stroke-width="1" fill="none" fill-rule="evenodd">
        <g id="画板备份" fill="#000000" fill-rule="nonzero">
            <g id="编组">
                <g id="Path" transform="translate(132.000000, 77.333333)">
                    <path d="M678.759589,54.3012937 L570.158198,54.3012937 L570.158198,67.8769152 C570.158198,112.85781 533.700892,149.328257 488.706856,149.328257 L271.504074,149.328257 C226.523179,149.328257 190.052732,112.85781 190.052732,67.8769152 L190.052732,54.3012937 L81.451342,54.3012937 C36.4704468,54.3012937 0,90.7717405 0,135.752636 L0,787.34784 C0,832.341875 36.4692522,868.799182 81.451342,868.799182 L678.759588,868.799182 C723.753624,868.799182 760.210931,832.341875 760.210931,787.34784 L760.210931,135.752636 C760.210931,90.7717405 723.753624,54.3012937 678.759589,54.3012937 Z M570.158197,651.596399 L190.052732,651.596399 C175.059101,651.596399 162.901488,639.453122 162.901488,624.445155 C162.901488,609.464663 175.057905,597.29391 190.052732,597.29391 L570.158197,597.29391 C585.138688,597.29391 597.309441,609.464663 597.309441,624.445155 C597.309441,639.453122 585.138688,651.596399 570.158197,651.596399 Z M570.158197,488.693716 L190.052732,488.693716 C175.059101,488.693716 162.901488,476.550439 162.901488,461.543666 C162.901488,446.563175 175.057905,434.405564 190.052732,434.405564 L570.158197,434.405564 C585.138688,434.405564 597.309441,446.563175 597.309441,461.543666 C597.309441,476.550439 585.138688,488.693716 570.158197,488.693716 Z M570.158197,325.805368 L190.052732,325.805368 C175.059101,325.805368 162.901488,313.648951 162.901488,298.655318 C162.901488,283.661686 175.057905,271.505269 190.052732,271.505269 L570.158197,271.505269 C585.138688,271.505269 597.309441,283.661686 597.309441,298.655318 C597.309441,313.648951 585.138688,325.805368 570.158197,325.805368 Z M285.079696,108.602586 L475.132428,108.602586 C497.642587,108.602586 515.858099,90.3607927 515.858099,67.8769152 L515.858099,40.725671 C515.858099,18.2286533 497.642587,0 475.132428,0 L285.079696,0 C262.582678,0 244.354025,18.2286545 244.354025,40.7256722 L244.354025,67.8769163 C244.354025,90.3607927 262.582678,108.602586 285.079696,108.602586 Z" id="形状"></path>
                </g>
            </g>
        </g>
    </g>
</svg>