<?xml version="1.0" encoding="UTF-8"?>
<svg width="16px" height="16px" viewBox="0 0 16 16" version="1.1" xmlns="http://www.w3.org/2000/svg" xmlns:xlink="http://www.w3.org/1999/xlink">
    <!-- Generator: Sketch 63.1 (92452) - https://sketch.com -->
    <title>shanchu</title>
    <desc>Created with Sketch.</desc>
    <defs>
        <linearGradient x1="0%" y1="0%" x2="100%" y2="100%" id="linearGradient-1">
            <stop stop-color="#DAC3A0" offset="0%"></stop>
            <stop stop-color="#DA9C6D" offset="100%"></stop>
        </linearGradient>
    </defs>
    <g id="页面-1" stroke="none" stroke-width="1" fill="none" fill-rule="evenodd">
        <g id="Login-002" transform="translate(-267.000000, -59.000000)">
            <g id="Header" transform="translate(48.000000, 54.000000)">
                <g id="编组-2" transform="translate(219.000000, 5.000000)">
                    <g id="cancel备份-2">
                        <g id="cancel">
                            <circle id="椭圆形" fill="url(#linearGradient-1)" cx="8" cy="8" r="8"></circle>
                            <path d="M8,11.0000001 C8.55228475,11.0000001 9,11.4477153 9,12.0000001 C9,12.5522848 8.55228475,13.0000001 8,13.0000001 C7.44771525,13.0000001 7,12.5522848 7,12.0000001 C7,11.4477153 7.44771525,11.0000001 8,11.0000001 Z M8.00021061,2.98110175 C8.6170108,2.98110175 8.99924524,3.20706817 8.99912605,3.48555477 L8.99912605,3.48555477 L8.99907439,9.52964643 C8.99907235,9.80801587 8.45984599,10.0336826 8.00015156,10.0336826 C7.54045713,10.0336826 7.00174659,9.80802324 7.00174862,9.5296538 L7.00174862,9.5296538 L7.00137602,3.48513787 C7.00149522,3.20665128 7.38341041,2.98110175 8.00021061,2.98110175 Z" id="形状结合" fill="#FFFFFF"></path>
                        </g>
                    </g>
                </g>
            </g>
        </g>
    </g>
</svg>