<?xml version="1.0" encoding="UTF-8"?>
<svg width="20px" height="20px" viewBox="0 0 20 20" version="1.1" xmlns="http://www.w3.org/2000/svg" xmlns:xlink="http://www.w3.org/1999/xlink">
    <!-- Generator: Sketch 62 (91390) - https://sketch.com -->
    <title>shanchu</title>
    <desc>Created with Sketch.</desc>
    <g id="页面-1" stroke="none" stroke-width="1" fill="none" fill-rule="evenodd">
        <g id="003-银行账户" transform="translate(-314.000000, -210.000000)">
            <g id="Card" transform="translate(25.000000, 194.000000)">
                <rect id="Base" fill="#FFFFFF" x="0" y="0" width="325" height="427" rx="15"></rect>
                <g id="cancel" transform="translate(289.000000, 16.000000)">
                    <g>
                        <circle id="椭圆形" fill="#C7C7D4" cx="10" cy="10" r="10"></circle>
                        <path d="M10.8917005,10.000375 L13.5654667,7.32581963 C13.8115111,7.07977168 13.8115111,6.68084914 13.5654667,6.43480119 C13.3194224,6.18875325 12.9205057,6.18875324 12.6744613,6.43480118 L9.99994511,9.10860654 L7.32617889,6.43480118 C7.08013454,6.18854613 6.68104994,6.18837823 6.43479848,6.43442618 C6.18854703,6.68047413 6.18837913,7.07956457 6.43442348,7.32581963 L9.1089397,10.000375 L6.43442348,12.6741804 C6.18837914,12.9204354 6.18854703,13.3195259 6.43479849,13.5655738 C6.68104994,13.8116218 7.08013454,13.8114539 7.32617889,13.5651988 L9.99994511,10.8913935 L12.6744613,13.5651988 C12.9205057,13.8112468 13.3194224,13.8112468 13.5654667,13.5651988 C13.8115111,13.3191509 13.8115111,12.9202283 13.5654667,12.6741804 L10.8917005,10.000375 Z" id="Path_1393" fill="#FFFFFF"></path>
                    </g>
                </g>
            </g>
        </g>
    </g>
</svg>