<?xml version="1.0" encoding="UTF-8"?>
<svg width="24px" height="24px" viewBox="0 0 24 24" version="1.1" xmlns="http://www.w3.org/2000/svg" xmlns:xlink="http://www.w3.org/1999/xlink">
    <!-- Generator: Sketch 62 (91390) - https://sketch.com -->
    <title>zhida</title>
    <desc>Created with Sketch.</desc>
    <defs>
        <linearGradient x1="50%" y1="0%" x2="50%" y2="100%" id="linearGradient-1">
            <stop stop-color="#FFFFFF" stop-opacity="0.784172858" offset="0%"></stop>
            <stop stop-color="#FFFFFF" offset="100%"></stop>
        </linearGradient>
    </defs>
    <g id="页面-1" stroke="none" stroke-width="1" fill="none" fill-rule="evenodd">
        <g id="004-点击选择" transform="translate(-43.000000, -680.000000)" fill="url(#linearGradient-1)" fill-rule="nonzero">
            <g id="Button-/2.2-Copy备份" transform="translate(24.000000, 670.000000)">
                <g id="编组" transform="translate(19.000000, 10.000000)">
                    <g id="Stockholm-icons-/-Files-/-Folder备份-2" transform="translate(1.000000, 0.000000)">
                        <path d="M19.1360682,3 C20.2367039,3 20.9451471,4.07774911 20.9451471,5.17838481 L20.9451471,5.17838481 L20.9451471,20.1399561 C20.95035,20.2206688 20.95035,20.3016329 20.9451471,20.3823456 C20.8758808,21.3125081 20.0663234,22.0108038 19.1360682,21.9427932 L19.1360682,21.9427932 L6.18123244,21.9427932 C5.07851618,21.9427932 3.99660586,21.2405918 3.99660586,20.1378755 L3.99660586,20.1378755 L3.99660586,19.062207 C3.42032513,18.8256064 3.03219671,18.2778511 3,17.6557236 C3.03233826,17.0338929 3.42048705,16.486514 3.99660586,16.2502805 L3.99660586,16.2502805 L3.99660586,14.072936 C3.42049028,13.8361278 3.03244729,13.2884931 3,12.6664525 C3.03208715,12.0445346 3.42032167,11.4970348 3.99660586,11.2610094 L3.99660586,11.2610094 L3.99660586,9.07638282 C3.42032167,8.84035743 3.03208715,8.29285761 3,7.67093972 C3.03233826,7.04910904 3.42048705,6.50173012 3.99660586,6.26549661 L3.99660586,6.26549661 L3.99660586,5.17838481 C4.07079181,4.00757908 5.00414962,3.07466699 6.17499065,3.00104029 L6.17499065,3.00104029 Z M16.8016386,7.21216814 C16.5669887,6.97832878 16.187405,6.97832878 15.9527551,7.21216814 L15.9527551,7.21216814 L12.7611197,10.4214886 L9.57676636,7.24233679 C9.34188144,7.00906691 8.96276779,7.00906691 8.72788288,7.24233679 C8.70165845,7.26423317 8.67761909,7.28862092 8.65610229,7.31515767 C8.49174833,7.51948092 8.52386413,7.81829745 8.72788288,7.98302924 L8.72788288,7.98302924 L11.8955915,11.0602318 L9.33021565,11.0602318 C9.10924026,11.0510426 8.90100195,11.1636953 8.78777598,11.3536806 C8.67455001,11.543666 8.67455001,11.7804229 8.78777598,11.9704083 C8.90100195,12.1603937 9.10924026,12.2730463 9.33021565,12.2638571 L9.33021565,12.2638571 L12.117175,12.2638571 L12.117175,14.0698151 L9.33021565,14.0698151 C9.00757009,14.0832324 8.75290951,14.3487032 8.75290951,14.6716277 C8.75290951,14.9945521 9.00757009,15.2600229 9.33021565,15.2734403 L9.33021565,15.2734403 L12.117175,15.2734403 L12.117175,17.3030624 C12.117175,17.6357216 12.3868486,17.9053952 12.7195078,17.9053952 C13.052167,17.9053952 13.3218405,17.6357216 13.3218405,17.3030624 L13.3218405,17.3030624 L13.3218405,15.2734403 L16.5540476,15.2734403 C16.8766932,15.2600229 17.1313537,14.9945521 17.1313537,14.6716277 C17.1313537,14.3487032 16.8766932,14.0832324 16.5540476,14.0698151 L16.5540476,14.0698151 L13.3218405,14.0698151 L13.3218405,12.2638571 L16.5540476,12.2638571 C16.775023,12.2730463 16.9832613,12.1603937 17.0964873,11.9704083 C17.2097132,11.7804229 17.2097132,11.543666 17.0964873,11.3536806 C16.9832613,11.1636953 16.775023,11.0510426 16.5540476,11.0602318 L16.5540476,11.0602318 L16.5540476,11.0872796 L13.6172853,11.0872796 L16.8016386,8.0069561 C16.8141222,7.99551282 16.8266058,7.98302924 16.838049,7.97054566 C16.9338073,7.8651594 16.9837697,7.72604419 16.9769411,7.58381451 C16.9701125,7.44158483 16.9070526,7.30789593 16.8016386,7.21216814 Z" id="形状结合"></path>
                    </g>
                </g>
            </g>
        </g>
    </g>
</svg>