<?xml version="1.0" encoding="UTF-8"?>
<svg width="24px" height="24px" viewBox="0 0 24 24" version="1.1" xmlns="http://www.w3.org/2000/svg" xmlns:xlink="http://www.w3.org/1999/xlink">
    <!-- Generator: Sketch 63.1 (92452) - https://sketch.com -->
    <title>zhida</title>
    <desc>Created with Sketch.</desc>
    <defs>
        <linearGradient x1="50%" y1="0%" x2="50%" y2="100%" id="linearGradient-1">
            <stop stop-color="#FFFFFF" stop-opacity="0.697852928" offset="0%"></stop>
            <stop stop-color="#FFFFFF" offset="100%"></stop>
        </linearGradient>
    </defs>
    <g id="页面-1" stroke="none" stroke-width="1" fill="none" fill-rule="evenodd">
        <g id="点击客服头像" transform="translate(-43.000000, -673.000000)" fill="url(#linearGradient-1)">
            <g id="编组" transform="translate(0.000000, 635.000000)">
                <g id="Button-/2.2" transform="translate(24.000000, 28.000000)">
                    <g id="编组" transform="translate(19.000000, 10.000000)">
                        <g id="Stockholm-icons-/-Files-/-Folder备份-4" transform="translate(1.000000, 0.000000)">
                            <g id="call" transform="translate(3.000000, 3.000000)">
                                <path d="M16.5789474,11.8515789 C15.4686316,11.8515789 14.3810526,11.6782105 13.3503158,11.3381053 C12.8472632,11.1647368 12.276,11.2983158 11.9453684,11.6355789 L9.90189474,13.1788421 C7.55715789,11.9273684 6.05652632,10.4276842 4.82210526,8.1 L6.32368421,6.10484211 C6.70168421,5.72684211 6.83715789,5.17357895 6.67515789,4.65536842 C6.33221053,3.618 6.15789474,2.52947368 6.15789474,1.42105263 C6.15789474,0.637578947 5.52031579,0 4.73684211,0 L1.42105263,0 C0.637578947,0 0,0.637578947 0,1.42105263 C0,10.5622105 7.43778947,18 16.5789474,18 C17.3624211,18 18,17.3624211 18,16.5789474 L18,13.2726316 C18,12.4891579 17.3624211,11.8515789 16.5789474,11.8515789 Z" id="XMLID_104_" fill-rule="nonzero"></path>
                            </g>
                        </g>
                    </g>
                </g>
            </g>
        </g>
    </g>
</svg>