<?xml version="1.0" encoding="UTF-8"?>
<svg width="14px" height="14px" viewBox="0 0 14 14" version="1.1" xmlns="http://www.w3.org/2000/svg" xmlns:xlink="http://www.w3.org/1999/xlink">
    <!-- Generator: Sketch 63.1 (92452) - https://sketch.com -->
    <title>biaoqian</title>
    <desc>Created with Sketch.</desc>
    <g id="页面-1" stroke="none" stroke-width="1" fill="none" fill-rule="evenodd">
        <g id="003-银行账户" transform="translate(-65.000000, -417.000000)" fill="#9F9FAF">
            <g id="Card" transform="translate(25.000000, 194.000000)">
                <g id="Download" transform="translate(38.000000, 223.000000)">
                    <g id="Component/Icon/Bill备份" transform="translate(2.000000, 0.000000)">
                        <g id="编组">
                            <path d="M11.5090848,10.1820046 C12.2428093,10.1956214 12.8333333,10.7838733 12.8333333,11.5075483 C12.8333333,12.2397592 12.2287966,12.8333333 11.4830628,12.8333333 L4.45587132,12.8333333 C4.89725299,12.4099598 5.13210981,11.9743284 5.13123383,11.5169821 C5.13035757,11.0594904 4.89369541,10.6174125 4.45054105,10.1820046 L11.5090848,10.1820046 Z M10.9318396,1.43206494 L10.9318396,9.6519319 L3.76984826,9.6519319 L4.27933245,10.622943 C4.39613793,10.8455591 4.45054105,11.0531876 4.45054105,11.2539048 C4.45054105,11.450342 4.39847405,11.6501736 4.28697098,11.8618332 L4.05429832,12.3035019 L3.64037873,12.3035019 C2.59635139,12.3035019 1.75,11.4724981 1.75,10.4474029 L1.75,1.43206494 C1.75,1.24737407 1.93749564,1.11925828 2.1138797,1.18342591 L4.21822209,1.94897496 L6.24404382,1.18455622 C6.30545967,1.16138171 6.37337956,1.16101906 6.43504846,1.18353637 L8.51434134,1.94275345 L10.5666127,1.18392 C10.7432177,1.11861978 10.9318396,1.24677455 10.9318396,1.43206494 Z M8.50135261,6.46980664 L4.18048694,6.46980664 C4.03134018,6.46980664 3.91043284,6.58852147 3.91043284,6.73496364 C3.91043284,6.88140581 4.03134018,7.00012064 4.18048694,7.00012064 L8.50135261,7.00012064 C8.65049938,7.00012064 8.77140672,6.88140581 8.77140672,6.73496364 C8.77140672,6.58852147 8.65049938,6.46980664 8.50135261,6.46980664 Z M6.34091978,4.34855065 L4.18048694,4.34855065 C4.03134018,4.34855065 3.91043284,4.46726548 3.91043284,4.61370765 C3.91043284,4.76014982 4.03134018,4.87886465 4.18048694,4.87886465 L6.34091978,4.87886465 C6.49006654,4.87886465 6.61097388,4.76014982 6.61097388,4.61370765 C6.61097388,4.46726548 6.49006654,4.34855065 6.34091978,4.34855065 Z" id="path"></path>
                        </g>
                    </g>
                </g>
            </g>
        </g>
    </g>
</svg>