<?xml version="1.0" encoding="UTF-8"?>
<svg width="24px" height="24px" viewBox="0 0 24 24" version="1.1" xmlns="http://www.w3.org/2000/svg" xmlns:xlink="http://www.w3.org/1999/xlink">
    <!-- Generator: Sketch 62 (91390) - https://sketch.com -->
    <title>zhida</title>
    <desc>Created with Sketch.</desc>
    <defs>
        <linearGradient x1="50%" y1="0%" x2="50%" y2="100%" id="linearGradient-1">
            <stop stop-color="#FFFFFF" stop-opacity="0.397563374" offset="0%"></stop>
            <stop stop-color="#FFFFFF" offset="100%"></stop>
        </linearGradient>
    </defs>
    <g id="页面-1" stroke="none" stroke-width="1" fill="none" fill-rule="evenodd">
        <g id="004-点击选择" transform="translate(-43.000000, -618.000000)" fill="url(#linearGradient-1)" fill-rule="nonzero">
            <g id="Button-/2.2-Copy" transform="translate(24.000000, 608.000000)">
                <g id="编组" transform="translate(19.000000, 10.000000)">
                    <g id="Stockholm-icons-/-Files-/-Folder备份" transform="translate(1.000000, 0.000000)">
                        <path d="M18.9084279,3.27268657 L16.3630828,3.27268657 L16.3630828,3.5908652 C16.3630828,4.64510493 15.5086146,5.49988103 14.4540669,5.49988103 L9.36337674,5.49988103 C8.30913701,5.49988103 7.45436091,4.64510493 7.45436091,3.5908652 L7.45436091,3.27268657 L4.90901583,3.27268657 C3.8547761,3.27268657 3,4.12746267 3,5.1817024 L3,20.453465 C3,21.5080127 3.8547481,22.3624808 4.90901583,22.3624808 L18.9084279,22.3624808 C19.9629756,22.3624808 20.8174437,21.5080127 20.8174437,20.453465 L20.8174437,5.1817024 C20.8174437,4.12746267 19.9629756,3.27268657 18.9084279,3.27268657 Z M16.3630827,17.2717906 L7.45436091,17.2717906 C7.10294768,17.2717906 6.81800363,16.9871825 6.81800363,16.6354333 C6.81800363,16.2843281 7.10291965,15.999076 7.45436091,15.999076 L16.3630827,15.999076 C16.714188,15.999076 16.99944,16.2843281 16.99944,16.6354333 C16.99944,16.9871825 16.714188,17.2717906 16.3630827,17.2717906 Z M16.3630827,13.453759 L7.45436091,13.453759 C7.10294768,13.453759 6.81800363,13.1691509 6.81800363,12.8174297 C6.81800363,12.4663244 7.10291965,12.1813804 7.45436091,12.1813804 L16.3630827,12.1813804 C16.714188,12.1813804 16.99944,12.4663244 16.99944,12.8174297 C16.99944,13.1691509 16.714188,13.453759 16.3630827,13.453759 Z M16.3630827,9.63606331 L7.45436091,9.63606331 C7.10294768,9.63606331 6.81800363,9.35114729 6.81800363,8.99973403 C6.81800363,8.64832077 7.10291965,8.36340474 7.45436091,8.36340474 L16.3630827,8.36340474 C16.714188,8.36340474 16.99944,8.64832077 16.99944,8.99973403 C16.99944,9.35114729 16.714188,9.63606331 16.3630827,9.63606331 Z M9.68155537,4.54537311 L14.1359163,4.54537311 C14.6634981,4.54537311 15.0904242,4.11783108 15.0904242,3.5908652 L15.0904242,2.95450791 C15.0904242,2.42723406 14.6634981,2 14.1359163,2 L9.68155537,2 C9.15428152,2 8.72704746,2.42723409 8.72704746,2.95450794 L8.72704746,3.59086523 C8.72704746,4.11783108 9.15428152,4.54537311 9.68155537,4.54537311 Z" id="形状"></path>
                    </g>
                </g>
            </g>
        </g>
    </g>
</svg>