<?xml version="1.0" encoding="UTF-8"?>
<svg width="1024px" height="1024px" viewBox="0 0 1024 1024" version="1.1" xmlns="http://www.w3.org/2000/svg" xmlns:xlink="http://www.w3.org/1999/xlink">
    <!-- Generator: Sketch 63.1 (92452) - https://sketch.com -->
    <title>lianxikefu</title>
    <desc>Created with Sketch.</desc>
    <defs>
        <linearGradient x1="50%" y1="0%" x2="50%" y2="100%" id="linearGradient-1">
            <stop stop-color="#FFFFFF" stop-opacity="0.697852928" offset="0%"></stop>
            <stop stop-color="#FFFFFF" offset="100%"></stop>
        </linearGradient>
    </defs>
    <g id="Billings" stroke="none" stroke-width="1" fill="none" fill-rule="evenodd">
        <g id="画板备份-5" fill="url(#linearGradient-1)" fill-rule="nonzero">
            <g id="编组">
                <path d="M840.421053,635.568421 C792.307368,635.568421 745.178947,628.055789 700.513684,613.317895 C678.714737,605.805263 653.96,611.593684 639.632632,626.208421 L551.082105,693.083158 C449.476842,638.852632 384.449474,573.866316 330.957895,473 L396.026316,386.543158 C412.406316,370.163158 418.276842,346.188421 411.256842,323.732632 C396.395789,278.78 388.842105,231.610526 388.842105,183.578947 C388.842105,149.628421 361.213684,122 327.263158,122 L183.578947,122 C149.628421,122 122,149.628421 122,183.578947 C122,579.695789 444.304211,902 840.421053,902 C874.371579,902 902,874.371579 902,840.421053 L902,697.147368 C902,663.196842 874.371579,635.568421 840.421053,635.568421 Z" id="XMLID_104_"></path>
            </g>
        </g>
    </g>
</svg>