<?xml version="1.0" encoding="UTF-8"?>
<svg width="24px" height="24px" viewBox="0 0 24 24" version="1.1" xmlns="http://www.w3.org/2000/svg" xmlns:xlink="http://www.w3.org/1999/xlink">
    <!-- Generator: Sketch 62 (91390) - https://sketch.com -->
    <title>zhida</title>
    <desc>Created with Sketch.</desc>
    <defs>
        <linearGradient x1="50%" y1="0%" x2="50%" y2="100%" id="linearGradient-1">
            <stop stop-color="#FFFFFF" stop-opacity="0.697852928" offset="0%"></stop>
            <stop stop-color="#FFFFFF" offset="100%"></stop>
        </linearGradient>
    </defs>
    <g id="页面-1" stroke="none" stroke-width="1" fill="none" fill-rule="evenodd">
        <g id="004-点击选择" transform="translate(-43.000000, -742.000000)" fill="url(#linearGradient-1)" fill-rule="nonzero">
            <g id="Button-/2.2-Copy备份-2" transform="translate(24.000000, 732.000000)">
                <g id="编组" transform="translate(19.000000, 10.000000)">
                    <g id="Stockholm-icons-/-Files-/-Folder" transform="translate(1.000000, 0.000000)">
                        <path d="M17.3879772,14.9612715 C19.4635469,14.9612715 21.1621531,16.6598777 21.1666948,18.7399891 C21.1939329,19.7268469 20.8470973,20.6199446 20.2555053,21.2957619 C20.3142115,21.3578572 20.4248047,21.481291 20.4672687,21.5694855 L21.8524957,22.9547125 C21.9796641,23.0818809 21.9796641,23.2680917 21.8524957,23.3952601 C21.7889115,23.4588443 21.6027007,23.5860127 21.5391165,23.6450552 C21.4164898,23.7086393 21.2893215,23.7086393 21.2257373,23.6495969 L19.5555254,21.9164071 C18.9436336,22.3345885 18.1973383,22.5777491 17.3879772,22.5777491 C15.3078659,22.5777491 13.6092596,20.8791429 13.6092596,18.7399891 C13.6092596,16.6598777 15.3124076,14.9612715 17.3879772,14.9612715 Z M17.3879772,15.9014091 C15.8119976,15.9014091 14.4903548,17.1640095 14.4903548,18.7990315 C14.4903548,20.3750111 15.7529552,21.6966539 17.3879772,21.6966539 C18.9594151,21.6966539 20.2810579,20.4385953 20.2855996,18.7990315 C20.2855996,17.1594678 19.0229993,15.9014091 17.3879772,15.9014091 Z M18.4540535,1 C19.2337496,1 19.8745021,1.59488808 19.9471869,2.35553999 L19.9540535,2.5 L19.9540535,14.6615174 L19.8495937,14.6615174 C19.1092921,14.1301353 18.160071,13.8076726 17.2108498,13.8076726 C14.5721059,13.8076726 12.4602025,15.9422847 12.4602025,18.6037372 C12.4602025,19.479052 12.7229471,20.3506134 13.1665418,21.0648692 L13.3049639,21.2742732 L3.48835518,21.1955796 C2.71295957,21.1893637 2.07887763,20.5956401 2.00713787,19.8389341 L2.0003794,19.6952454 L2.00476257,2.49999995 C2.00532119,1.72044448 2.60018734,1.0799066 3.36071024,1.00692782 L3.50514493,1 L18.4540535,1 Z M14.8997784,5.46538245 C14.6546893,5.22113993 14.2582185,5.22113993 14.0131294,5.46538245 L14.0131294,5.46538245 L10.6795029,8.8174808 L7.35348244,5.49689326 C7.10814784,5.25324555 6.712168,5.25324555 6.46683341,5.49689326 C6.43944229,5.51976378 6.41433346,5.5452365 6.39185941,5.57295383 C6.22019359,5.78636712 6.25373817,6.09847755 6.46683341,6.27053801 L6.46683341,6.27053801 L9.77546858,9.48464074 L7.09596306,9.48464074 C6.8651568,9.47504266 6.64765429,9.59270708 6.52939107,9.79114463 C6.41112784,9.98958218 6.41112784,10.236872 6.52939107,10.4353096 C6.64765429,10.6337471 6.8651568,10.7514115 7.09596306,10.7418135 L7.09596306,10.7418135 L10.0069101,10.7418135 L10.0069101,12.6281158 L7.09596306,12.6281158 C6.75896348,12.6421301 6.49297344,12.9194113 6.49297344,13.2567021 C6.49297344,13.593993 6.75896348,13.8712742 7.09596306,13.8852885 L7.09596306,13.8852885 L10.0069101,13.8852885 L10.0069101,16.0052055 C10.0069101,16.3526642 10.288581,16.6343351 10.6360397,16.6343351 C10.9834984,16.6343351 11.2651693,16.3526642 11.2651693,16.0052055 L11.2651693,16.0052055 L11.2651693,13.8852885 L14.6411724,13.8852885 C14.978172,13.8712742 15.2441621,13.593993 15.2441621,13.2567021 C15.2441621,12.9194113 14.978172,12.6421301 14.6411724,12.6281158 L14.6411724,12.6281158 L11.2651693,12.6281158 L11.2651693,10.7418135 L14.6411724,10.7418135 C14.8719787,10.7514115 15.0894812,10.6337471 15.2077444,10.4353096 C15.3260077,10.236872 15.3260077,9.98958218 15.2077444,9.79114463 C15.0894812,9.59270708 14.8719787,9.47504266 14.6411724,9.48464074 L14.6411724,9.48464074 L14.6411724,9.51289181 L11.573758,9.51289181 L14.8997784,6.29552934 C14.9128174,6.28357696 14.9258563,6.27053801 14.9378087,6.25749906 C15.0378271,6.14742432 15.0900122,6.00212008 15.0828798,5.85356281 C15.0757475,5.70500555 15.0098821,5.56536903 14.8997784,5.46538245 Z" id="形状结合"></path>
                    </g>
                </g>
            </g>
        </g>
    </g>
</svg>