<?xml version="1.0" encoding="UTF-8"?>
<svg width="1024px" height="1024px" viewBox="0 0 1024 1024" version="1.1" xmlns="http://www.w3.org/2000/svg" xmlns:xlink="http://www.w3.org/1999/xlink">
    <!-- Generator: Sketch 63.1 (92452) - https://sketch.com -->
    <title>zhucedenglu</title>
    <desc>Created with Sketch.</desc>
    <defs>
        <linearGradient x1="50%" y1="0%" x2="50%" y2="100%" id="linearGradient-1">
            <stop stop-color="#FFFFFF" stop-opacity="0.397563374" offset="0%"></stop>
            <stop stop-color="#FFFFFF" offset="100%"></stop>
        </linearGradient>
    </defs>
    <g id="Billings" stroke="none" stroke-width="1" fill="none" fill-rule="evenodd">
        <g id="画板备份-4" fill="url(#linearGradient-1)" fill-rule="nonzero">
            <g id="编组">
                <path d="M818.428396,121.714812 L707,121.714812 L707,135.643821 C707,181.795615 669.593673,219.215425 623.428396,219.215425 L400.571604,219.215425 C354.41981,219.215425 317,181.795615 317,135.643821 L317,121.714812 L205.571604,121.714812 C159.41981,121.714812 122,159.134622 122,205.286416 L122,873.843311 C122,920.008587 159.418584,957.414915 205.571604,957.414915 L818.428396,957.414915 C864.593672,957.414915 902,920.008587 902,873.843311 L902,205.286416 C902,159.134622 864.593672,121.714812 818.428396,121.714812 Z M706.999999,734.558121 L317,734.558121 C301.616069,734.558121 289.141981,722.098742 289.141981,706.700102 C289.141981,691.329653 301.614842,678.842083 317,678.842083 L706.999999,678.842083 C722.370448,678.842083 734.858018,691.329653 734.858018,706.700102 C734.858018,722.098742 722.370448,734.558121 706.999999,734.558121 Z M706.999999,567.414914 L317,567.414914 C301.616069,567.414914 289.141981,554.955535 289.141981,539.558121 C289.141981,524.187672 301.614842,511.713586 317,511.713586 L706.999999,511.713586 C722.370448,511.713586 734.858018,524.187672 734.858018,539.558121 C734.858018,554.955535 722.370448,567.414914 706.999999,567.414914 Z M706.999999,400.286416 L317,400.286416 C301.616069,400.286416 289.141981,387.813555 289.141981,372.429622 C289.141981,357.04569 301.614842,344.572829 317,344.572829 L706.999999,344.572829 C722.370448,344.572829 734.858018,357.04569 734.858018,372.429622 C734.858018,387.813555 722.370448,400.286416 706.999999,400.286416 Z M414.500612,177.429623 L609.500612,177.429623 C632.596734,177.429623 651.286414,158.712977 651.286414,135.643821 L651.286414,107.785802 C651.286414,84.7031639 632.596734,66 609.500612,66 L414.500612,66 C391.417974,66 372.71481,84.7031651 372.71481,107.785803 L372.71481,135.643822 C372.71481,158.712977 391.417974,177.429623 414.500612,177.429623 Z" id="形状"></path>
            </g>
        </g>
    </g>
</svg>