<?xml version="1.0" encoding="UTF-8"?>
<svg width="1024px" height="1024px" viewBox="0 0 1024 1024" version="1.1" xmlns="http://www.w3.org/2000/svg" xmlns:xlink="http://www.w3.org/1999/xlink">
    <!-- Generator: Sketch 63.1 (92452) - https://sketch.com -->
    <title>cloose</title>
    <desc>Created with Sketch.</desc>
    <g id="Billings" stroke="none" stroke-width="1" fill="none" fill-rule="evenodd">
        <g id="画板备份-6" fill="#C7C7D4">
            <g id="编组">
                <path d="M512,122 C296.95625,122 122,296.95625 122,512 C122,727.04375 296.95625,902 512,902 C727.04375,902 902,727.04375 902,512 C902,296.95625 727.04375,122 512,122 Z M596.852814,639.279221 L512,554.426407 L427.147186,639.279221 C415.431458,650.994949 396.436508,650.994949 384.720779,639.279221 C373.005051,627.563492 373.005051,608.568542 384.720779,596.852814 L469.573593,512 L384.720779,427.147186 C373.005051,415.431458 373.005051,396.436508 384.720779,384.720779 C396.436508,373.005051 415.431458,373.005051 427.147186,384.720779 L512,469.573593 L596.852814,384.720779 C608.568542,373.005051 627.563492,373.005051 639.279221,384.720779 C650.994949,396.436508 650.994949,415.431458 639.279221,427.147186 L554.426407,512 L639.279221,596.852814 C650.994949,608.568542 650.994949,627.563492 639.279221,639.279221 C627.563492,650.994949 608.568542,650.994949 596.852814,639.279221 Z" id="形状"></path>
            </g>
        </g>
    </g>
</svg>