<?xml version="1.0" encoding="UTF-8"?>
<svg width="24px" height="24px" viewBox="0 0 24 24" version="1.1" xmlns="http://www.w3.org/2000/svg" xmlns:xlink="http://www.w3.org/1999/xlink">
    <!-- Generator: Sketch 62 (91390) - https://sketch.com -->
    <title>zhida</title>
    <desc>Created with Sketch.</desc>
    <defs>
        <linearGradient x1="50%" y1="0%" x2="50%" y2="244.459076%" id="linearGradient-1">
            <stop stop-color="#FFFFFF" stop-opacity="0.795918925" offset="0%"></stop>
            <stop stop-color="#FFFFFF" offset="100%"></stop>
        </linearGradient>
    </defs>
    <g id="页面-1" stroke="none" stroke-width="1" fill="none" fill-rule="evenodd">
        <g id="004-点击选择" transform="translate(-43.000000, -556.000000)" fill="url(#linearGradient-1)" fill-rule="nonzero">
            <g id="Button-/2.2" transform="translate(24.000000, 546.000000)">
                <g id="编组" transform="translate(19.000000, 10.000000)">
                    <g id="Stockholm-icons-/-Files-/-Folder备份-3" transform="translate(1.000000, 0.000000)">
                        <path d="M12.9262513,8.09954745 L20.974606,12.7334487 L18.9747118,19.4647999 C20.5356049,19.3672441 21.4623851,19.6599115 22.9745003,20.5379139 L22.9745003,20.5379139 L22.9745003,21.513472 C21.2184956,20.4403581 20.2917154,20.2452464 17.9991537,20.5379139 C16.2919269,20.7330255 13.9018095,19.8062453 11.9994711,19.5623557 C10.2922443,19.3672441 7.41434774,20.0989127 5.99978843,20.5379139 C4.43889538,21.025693 5.65834306,21.6598058 2,21.513472 L2,21.513472 L2,20.5379139 C5.65834308,20.6354697 4.4876733,20.0501348 5.99978843,19.5623557 C6.14612214,19.5135778 6.34123378,19.4647999 6.53634541,19.416022 L6.53634541,19.416022 L3.41455933,12.7334487 L11.9506931,8.14832537 L11.9506931,18.5867976 L12.9262513,18.5867976 L12.9262513,8.09954745 Z M17.2187072,4.92898348 C17.8040421,4.92898348 18.2430432,5.36798464 18.2918211,5.90454162 L18.2918211,5.90454162 L18.2918211,9.80677421 L12.4384722,6.83132185 L6.58512333,9.80677421 L6.58512333,5.90454162 C6.58512333,5.51431838 6.68267914,4.92898348 7.65823729,4.92898348 L7.65823729,4.92898348 Z M9.51179777,2.97786716 C9.51179777,1.9047532 10.0971327,2.00230901 10.6824676,2.00230901 L10.6824676,2.00230901 L14.1944769,2.00230901 C14.9749234,2.00230901 15.3651467,2.24619855 15.3651467,2.97786716 L15.3651467,2.97786716 L15.3651467,3.95342531 L9.51179777,3.95342531 Z" id="形状结合"></path>
                    </g>
                </g>
            </g>
        </g>
    </g>
</svg>