<?xml version="1.0" encoding="UTF-8"?>
<svg width="1024px" height="1024px" viewBox="0 0 1024 1024" version="1.1" xmlns="http://www.w3.org/2000/svg" xmlns:xlink="http://www.w3.org/1999/xlink">
    <!-- Generator: Sketch 63.1 (92452) - https://sketch.com -->
    <title>SHipment</title>
    <desc>Created with Sketch.</desc>
    <g id="工作台" stroke="none" stroke-width="1" fill="none" fill-rule="evenodd">
        <g id="画板" fill="#000000">
            <g id="编组">
                <g id="Path" transform="translate(64.333333, 95.333333)">
                    <path d="M466.186722,260.247358 L809.583191,457.960477 L724.254372,745.164796 C790.852475,741.002415 830.395099,753.489559 894.912011,790.950992 L894.912011,790.950992 L894.912011,832.574807 C819.989145,786.788611 780.446522,778.463848 682.630557,790.950992 C609.788882,799.275755 507.810537,759.733131 426.644099,749.327178 C353.802423,741.002415 231.01217,772.220276 170.65764,790.950992 C104.059536,811.7629 156.089304,838.818379 2.63753464e-11,832.574807 L2.63753464e-11,832.574807 L2.63753464e-11,790.950992 C156.089305,795.113374 106.140727,770.139085 170.65764,749.327178 C176.901211,747.245987 185.225974,745.164796 193.550737,743.083606 L193.550737,743.083606 L60.3545315,457.960477 L424.562908,262.328549 L424.562908,707.703363 L466.186722,707.703363 L466.186722,260.247358 Z M649.331506,124.969962 C674.305794,124.969962 693.036512,143.700678 695.117702,166.593776 L695.117702,166.593776 L695.117702,333.089033 L445.374815,206.136399 L195.631929,333.089033 L195.631929,166.593776 C195.631929,149.944251 199.79431,124.969962 241.418124,124.969962 L241.418124,124.969962 Z M320.503372,41.7223322 C320.503372,-4.0638636 345.47766,0.0985179086 370.451949,0.0985179086 L370.451949,0.0985179086 L520.297681,0.0985179086 C553.596732,0.0985179086 570.246258,10.5044713 570.246258,41.7223322 L570.246258,41.7223322 L570.246258,83.3461465 L320.503372,83.3461465 Z" id="形状结合"></path>
                </g>
            </g>
        </g>
    </g>
</svg>