<?xml version="1.0" encoding="UTF-8"?>
<svg width="1024px" height="1024px" viewBox="0 0 1024 1024" version="1.1" xmlns="http://www.w3.org/2000/svg" xmlns:xlink="http://www.w3.org/1999/xlink">
    <!-- Generator: Sketch 63.1 (92452) - https://sketch.com -->
    <title>tips</title>
    <desc>Created with Sketch.</desc>
    <defs>
        <linearGradient x1="0%" y1="0%" x2="100%" y2="100%" id="linearGradient-1">
            <stop stop-color="#DAC3A0" offset="0%"></stop>
            <stop stop-color="#DA9C6D" offset="100%"></stop>
        </linearGradient>
    </defs>
    <g id="启动页登录注册" stroke="none" stroke-width="1" fill="none" fill-rule="evenodd">
        <g id="画板" fill="url(#linearGradient-1)">
            <g id="编组">
                <path d="M511.6,102 C737.815834,102 921.2,285.384166 921.2,511.6 C921.2,737.815834 737.815834,921.2 511.6,921.2 C285.384166,921.2 102,737.815834 102,511.6 C102,285.384166 285.384166,102 511.6,102 Z M511.6,665.200004 C483.323021,665.200004 460.4,688.123025 460.4,716.400004 C460.4,744.676983 483.323021,767.600004 511.6,767.600004 C539.876979,767.600004 562.8,744.676983 562.8,716.400004 C562.8,688.123025 539.876979,665.200004 511.6,665.200004 Z M511.610783,254.632409 C480.030613,254.632409 460.476555,266.180545 460.470452,280.439059 L460.470452,280.439059 L460.469318,383.401411 L460.468941,435.014335 L460.48953,589.918275 L460.497769,590.345032 C461.04066,604.40071 488.306769,615.724548 511.60776,615.724548 C535.144115,615.724548 562.752504,604.170412 562.752609,589.917897 L562.752609,589.917897 L562.753742,435.03568 L562.75412,383.379311 L562.755254,280.460404 L562.749572,280.033464 C562.368747,265.971658 542.875151,254.632409 511.610783,254.632409 Z" id="形状结合"></path>
            </g>
        </g>
    </g>
</svg>