<?xml version="1.0" encoding="UTF-8"?>
<svg width="48px" height="48px" viewBox="0 0 48 48" version="1.1" xmlns="http://www.w3.org/2000/svg" xmlns:xlink="http://www.w3.org/1999/xlink">
    <!-- Generator: Sketch 63.1 (92452) - https://sketch.com -->
    <title>编组</title>
    <desc>Created with Sketch.</desc>
    <defs>
        <linearGradient x1="25.2107446%" y1="7.86027101%" x2="58.6604758%" y2="100%" id="linearGradient-1">
            <stop stop-color="#779FFE" offset="0%"></stop>
            <stop stop-color="#496DFE" offset="100%"></stop>
        </linearGradient>
        <linearGradient x1="50%" y1="0%" x2="50%" y2="100%" id="linearGradient-2">
            <stop stop-color="#FFFFFF" stop-opacity="0.784172858" offset="0%"></stop>
            <stop stop-color="#FFFFFF" offset="100%"></stop>
        </linearGradient>
    </defs>
    <g id="页面-1" stroke="none" stroke-width="1" fill="none" fill-rule="evenodd">
        <g id="04-游客模式首页" transform="translate(-24.000000, -375.000000)">
            <g id="mk_业务信息备份-43" transform="translate(0.000000, 363.000000)">
                <g id="mk_blling" transform="translate(24.000000, 12.000000)">
                    <g id="编组">
                        <circle id="椭圆形备份-20" fill="url(#linearGradient-1)" cx="24" cy="24" r="24"></circle>
                        <g id="icon_billing备份-2" transform="translate(7.000000, 7.000000)" fill="url(#linearGradient-2)" fill-rule="nonzero">
                            <path d="M16.9959754,6.07142857 C22.3133879,6.07142857 27.8651033,10.5856922 27.9280314,14.0274748 C28.0785705,14.8562197 28.1414389,15.7721976 28.1414389,16.7443422 C28.1414389,17.6368015 28.0667884,18.5083136 27.9125558,19.3233753 L27.9173494,19.274423 C27.6633293,22.6243609 23.126722,27.9285714 17.355374,27.9285714 C11.4146325,27.9285714 6.07142857,23.3880052 6.07142857,16.9106667 C6.07142857,10.4333283 11.6481718,6.07142857 16.9959754,6.07142857 Z M21.0620232,9.37215736 C16.270087,9.37215736 12.331815,12.6127892 12.5292146,17 C12.7266141,21.3872108 15.9549595,24.6055093 19.8169822,24.6055093 C20.9306764,24.625055 21.8976022,24.4902727 22.7358369,24.2520109 C19.6821853,23.8566318 18.2142857,19.9880181 18.2142857,17 C18.2142857,13.8520398 19.4141801,9.73985662 23.235791,9.72752135 C22.5862952,9.50553221 21.8627219,9.37215736 21.0620232,9.37215736 Z M23.6282755,11.3576799 C22.3508617,11.3576799 21.4353383,15.0979582 21.4353383,17.0969619 C21.4353383,19.0959657 22.0501799,22.6423201 23.6282755,22.6423201 C25.2063712,22.6423201 25.8067669,19.2050478 25.8067669,17 C25.8067669,14.7949522 24.9056894,11.3576799 23.6282755,11.3576799 Z" id="形状结合"></path>
                        </g>
                    </g>
                </g>
            </g>
        </g>
    </g>
</svg>