<?xml version="1.0" encoding="UTF-8"?>
<svg width="18px" height="18px" viewBox="0 0 18 18" version="1.1" xmlns="http://www.w3.org/2000/svg" xmlns:xlink="http://www.w3.org/1999/xlink">
    <!-- Generator: Sketch 57.1 (83088) - https://sketch.com -->
    <title>icon_rili</title>
    <desc>Created with Sketch.</desc>
    <g id="首页" stroke="none" stroke-width="1" fill="none" fill-rule="evenodd">
        <g id="导航" transform="translate(-29.000000, -736.000000)">
            <g id="Bottom-navigation-/-Home备份-2" transform="translate(0.000000, 704.000000)">
                <g id="mk_日程" transform="translate(0.000000, 24.000000)">
                    <g id="icon_richeng" transform="translate(28.000000, 7.000000)">
                        <rect id="矩形" x="0" y="0" width="20" height="20"></rect>
                        <g id="今日日程备份" stroke-width="1" fill-rule="evenodd">
                            <rect id="矩形" fill="#000000" fill-rule="nonzero" opacity="0" x="0" y="0" width="20" height="20"></rect>
                            <path d="M11.875,3.75 L8.125,3.75 C7.77929688,3.75 7.5,3.47070312 7.5,3.125 C7.5,2.77929688 7.77929688,2.5 8.125,2.5 L11.875,2.5 C12.2207031,2.5 12.5,2.77929688 12.5,3.125 C12.5,3.47070312 12.2207031,3.75 11.875,3.75 Z M14.375,11.25 L5.625,11.25 C5.27929688,11.25 5,10.9707031 5,10.625 C5,10.2792969 5.27929688,10 5.625,10 L14.375,10 C14.7207031,10 15,10.2792969 15,10.625 C15,10.9707031 14.7207031,11.25 14.375,11.25 Z M14.375,15 L5.625,15 C5.27929688,15 5,14.7207031 5,14.375 C5,14.0292969 5.27929688,13.75 5.625,13.75 L14.375,13.75 C14.7207031,13.75 15,14.0292969 15,14.375 C15,14.7207031 14.7207031,15 14.375,15 Z M17.5,2.5 L15,2.5 L15,3.75 L16.7734375,3.75 C17.1757812,3.75 17.5019531,4.07617188 17.5019531,4.47851562 L17.5019531,6.25 L2.50195312,6.25 L2.50195312,4.4609375 C2.50195312,4.06835938 2.8203125,3.75 3.21484375,3.75 L4.40039062,3.75 C4.74609375,3.75 5.02539062,3.47070312 5.02539062,3.125 C5.02539062,2.77929688 4.74609375,2.5 4.40039062,2.5 L2.50390625,2.5 C1.81054688,2.5 1.25,3.06054688 1.25,3.75 L1.25,17.5 C1.25,18.1894531 1.81054688,18.75 2.50195312,18.75 L17.5,18.75 C18.1894531,18.75 18.75,18.1894531 18.75,17.5 L18.75,3.75 C18.75,3.06054688 18.1894531,2.5 17.5,2.5 Z M16.2519531,17.5 L2.50195312,17.5 L2.50195312,7.5 L17.5,7.5 L17.5,16.2519531 C17.5,16.9414063 16.9414063,17.5 16.2519531,17.5 Z M6.20117188,5 C5.86132813,5 5.5859375,4.72460938 5.5859375,4.38476562 L5.5859375,1.86523438 C5.5859375,1.52539062 5.86132813,1.25 6.20117188,1.25 C6.54101563,1.25 6.81640625,1.52539062 6.81640625,1.86523438 L6.81640625,4.38476562 C6.81640625,4.72460938 6.54101563,5 6.20117188,5 Z M13.7597656,5 C13.4199219,5 13.1445312,4.72460938 13.1445312,4.38476562 L13.1445312,1.86523438 C13.1445312,1.52539062 13.4199219,1.25 13.7597656,1.25 C14.0996094,1.25 14.375,1.52539062 14.375,1.86523438 L14.375,4.38476562 C14.375,4.72460938 14.0996094,5 13.7597656,5 Z" id="形状" fill="#0A2463" fill-rule="nonzero"></path>
                        </g>
                    </g>
                </g>
            </g>
        </g>
    </g>
</svg>