<?xml version="1.0" encoding="UTF-8"?>
<svg width="19px" height="19px" viewBox="0 0 19 19" version="1.1" xmlns="http://www.w3.org/2000/svg" xmlns:xlink="http://www.w3.org/1999/xlink">
    <!-- Generator: Sketch 57.1 (83088) - https://sketch.com -->
    <title>icon_工作台</title>
    <desc>Created with Sketch.</desc>
    <g id="首页" stroke="none" stroke-width="1" fill="none" fill-rule="evenodd">
        <g id="导航" transform="translate(-103.000000, -736.000000)">
            <g id="Bottom-navigation-/-Home备份-2" transform="translate(0.000000, 704.000000)">
                <g id="mk_工作台" transform="translate(75.000000, 24.000000)">
                    <g id="icon_工作台点击" transform="translate(27.000000, 7.000000)">
                        <rect id="矩形" x="0" y="0" width="20" height="20"></rect>
                        <g id="工作台" stroke-width="1" fill-rule="evenodd" transform="translate(1.000000, 1.000000)" fill="#3E8EFF">
                            <path d="M1.125,10.3978125 L6.5475,10.3978125 C7.2975,10.3978125 7.6725,10.7728125 7.6725,11.5228125 L7.6725,16.9453125 C7.6725,17.6953125 7.2975,18.0703125 6.5475,18.0703125 L1.125,18.0703125 C0.375,18.0703125 0,17.6953125 0,16.9453125 L0,11.5228125 C0,10.7728125 0.375,10.3978125 1.125,10.3978125 Z" id="路径" fill-rule="nonzero"></path>
                            <path d="M1.125,1.1953125 L6.5475,1.1953125 C7.2975,1.1953125 7.6725,1.5703125 7.6725,2.3203125 L7.6725,7.7428125 C7.6725,8.4928125 7.2975,8.8678125 6.5475,8.8678125 L1.125,8.8678125 C0.375,8.8678125 0,8.4928125 0,7.7428125 L0,2.3203125 C0,1.5703125 0.375,1.1953125 1.125,1.1953125 Z" id="路径" fill-rule="nonzero"></path>
                            <path d="M13.8306771,0.405894814 L17.6649636,4.24018134 C18.1952937,4.77051142 18.1952937,5.30084151 17.6649636,5.8311716 L13.8306771,9.66545812 C13.300347,10.1957882 12.7700169,10.1957882 12.2396868,9.66545812 L8.40540032,5.8311716 C7.87507024,5.30084151 7.87507024,4.77051142 8.40540032,4.24018134 L12.2396868,0.405894814 C12.7700169,-0.124435271 13.300347,-0.124435271 13.8306771,0.405894814 Z" id="路径" fill-rule="nonzero"></path>
                            <path d="M10.3275,10.3978125 L15.75,10.3978125 C16.5,10.3978125 16.875,10.7728125 16.875,11.5228125 L16.875,16.9453125 C16.875,17.6953125 16.5,18.0703125 15.75,18.0703125 L10.3275,18.0703125 C9.5775,18.0703125 9.2025,17.6953125 9.2025,16.9453125 L9.2025,11.5228125 C9.2025,10.7728125 9.5775,10.3978125 10.3275,10.3978125 Z" id="路径" fill-rule="nonzero"></path>
                        </g>
                    </g>
                </g>
            </g>
        </g>
    </g>
</svg>